<svg xmlns="http://www.w3.org/2000/svg" xmlns:xlink="http://www.w3.org/1999/xlink" width="500" zoomAndPan="magnify" viewBox="0 0 375 374.999991" height="500" preserveAspectRatio="xMidYMid meet" version="1.2"><defs><clipPath id="8e11c3cfd6"><path d="M 154.804688 156.839844 L 220.195312 156.839844 L 220.195312 222.226562 L 154.804688 222.226562 Z M 154.804688 156.839844 "/></clipPath><clipPath id="a6ae257e5a"><path d="M 187.5 156.839844 C 169.445312 156.839844 154.804688 171.476562 154.804688 189.53125 C 154.804688 207.589844 169.445312 222.226562 187.5 222.226562 C 205.554688 222.226562 220.195312 207.589844 220.195312 189.53125 C 220.195312 171.476562 205.554688 156.839844 187.5 156.839844 Z M 187.5 156.839844 "/></clipPath></defs><g id="ef2db3e41f"><rect x="0" width="375" y="0" height="374.999991" style="fill:#ffffff;fill-opacity:1;stroke:none;"/><rect x="0" width="375" y="0" height="374.999991" style="fill:#ffffff;fill-opacity:1;stroke:none;"/><path style=" stroke:none;fill-rule:nonzero;fill:#00390d;fill-opacity:1;" d="M 263.558594 17.085938 C 257.28125 16.875 250.710938 17.96875 244.125 20.105469 C 230.949219 24.375 217.140625 32.699219 202.972656 44.226562 C 197.417969 48.742188 191.816406 53.90625 186.191406 59.386719 C 180.695312 54.046875 175.207031 49.007812 169.777344 44.589844 C 155.617188 33.070312 141.847656 24.761719 128.703125 20.496094 C 115.554688 16.234375 102.476562 16.105469 91.734375 22.304688 C 80.988281 28.507812 74.566406 39.894531 71.683594 53.410156 C 68.800781 66.925781 69.101562 83.023438 71.996094 101.042969 C 73.003906 107.300781 74.453125 113.867188 76.085938 120.554688 C 69.949219 122.417969 63.988281 124.371094 58.457031 126.53125 C 41.777344 133.046875 27.972656 140.84375 17.917969 150.121094 C 7.867188 159.394531 1.375 170.652344 1.375 183.015625 C 1.375 195.378906 7.867188 206.621094 17.917969 215.898438 C 27.972656 225.171875 41.777344 232.984375 58.457031 239.5 C 64.371094 241.808594 70.769531 243.886719 77.375 245.851562 C 75 254.730469 73.074219 263.347656 71.761719 271.515625 C 68.863281 289.550781 68.558594 305.648438 71.449219 319.195312 C 74.335938 332.742188 80.761719 344.191406 91.558594 350.425781 C 102.355469 356.65625 115.496094 356.503906 128.671875 352.234375 C 141.847656 347.960938 155.636719 339.652344 169.808594 328.125 C 175.308594 323.652344 180.875 318.546875 186.445312 313.125 C 192.039062 318.574219 197.632812 323.710938 203.160156 328.203125 C 217.316406 339.722656 231.101562 348.035156 244.25 352.296875 C 257.394531 356.558594 270.460938 356.691406 281.203125 350.488281 C 291.945312 344.285156 298.371094 332.898438 301.253906 319.382812 C 304.132812 305.867188 303.816406 289.773438 300.921875 271.753906 C 299.605469 263.5625 297.679688 254.933594 295.292969 246.027344 C 302.117188 244.011719 308.71875 241.878906 314.808594 239.5 C 331.492188 232.984375 345.292969 225.171875 355.347656 215.898438 C 365.398438 206.621094 371.890625 195.378906 371.890625 183.015625 C 371.890625 170.652344 365.398438 159.394531 355.347656 150.121094 C 345.292969 140.84375 331.492188 133.046875 314.808594 126.53125 C 309.199219 124.339844 303.148438 122.359375 296.914062 120.476562 C 298.558594 113.746094 300.019531 107.132812 301.03125 100.835938 C 303.929688 82.804688 304.234375 66.691406 301.347656 53.144531 C 298.457031 39.597656 292.015625 28.160156 281.21875 21.929688 C 275.820312 18.8125 269.835938 17.296875 263.558594 17.085938 Z M 262.820312 33.472656 C 266.761719 33.578125 270.121094 34.515625 272.996094 36.175781 C 278.742188 39.496094 282.992188 45.953125 285.261719 56.585938 C 287.527344 67.21875 287.449219 81.582031 284.773438 98.242188 C 283.855469 103.945312 282.527344 109.992188 281.015625 116.183594 C 264.550781 112.222656 246.507812 109.28125 227.28125 107.550781 C 217.621094 94.167969 207.695312 81.996094 197.6875 71.179688 C 202.976562 66.015625 208.234375 61.183594 213.367188 57.011719 C 226.453125 46.363281 238.847656 39.121094 249.1875 35.765625 C 254.359375 34.089844 258.882812 33.363281 262.820312 33.472656 Z M 110.035156 33.519531 C 114 33.40625 118.53125 34.132812 123.71875 35.8125 C 134.089844 39.175781 146.5 46.417969 159.601562 57.074219 C 164.628906 61.164062 169.769531 65.886719 174.949219 70.929688 C 164.871094 81.828125 154.871094 94.128906 145.152344 107.628906 C 125.992188 109.390625 108.015625 112.359375 91.621094 116.34375 C 90.121094 110.179688 88.808594 104.15625 87.894531 98.476562 C 85.21875 81.804688 85.148438 67.421875 87.425781 56.761719 C 89.699219 46.097656 93.980469 39.605469 99.785156 36.253906 C 102.683594 34.578125 106.074219 33.628906 110.035156 33.519531 Z M 186.445312 82.769531 C 193.003906 89.90625 199.5625 97.71875 206.070312 106.121094 C 199.675781 105.855469 193.207031 105.695312 186.632812 105.695312 C 179.929688 105.695312 173.335938 105.859375 166.820312 106.136719 C 173.328125 97.726562 179.882812 89.910156 186.445312 82.769531 Z M 186.632812 121.957031 C 197.582031 121.957031 208.253906 122.40625 218.632812 123.167969 C 225.777344 133.425781 232.753906 144.308594 239.40625 155.828125 C 245.25 165.949219 250.539062 176.054688 255.351562 186.035156 C 250.488281 196.148438 245.109375 206.390625 239.1875 216.652344 C 233.972656 225.683594 228.523438 234.261719 222.988281 242.535156 C 211.265625 243.515625 199.113281 244.058594 186.632812 244.058594 C 173.851562 244.058594 161.429688 243.484375 149.441406 242.457031 C 144 234.304688 138.644531 225.839844 133.515625 216.949219 C 127.601562 206.710938 122.253906 196.503906 117.394531 186.414062 C 122.273438 176.265625 127.648438 165.984375 133.59375 155.6875 C 140.207031 144.226562 147.167969 133.40625 154.269531 123.199219 C 164.761719 122.417969 175.558594 121.957031 186.632812 121.957031 Z M 239.375 125.179688 C 252.640625 126.835938 265.097656 129.136719 276.691406 131.894531 C 273.25 143.175781 269.011719 154.957031 263.875 167.117188 C 260.539062 160.691406 257.085938 154.238281 253.355469 147.777344 C 248.835938 139.949219 244.136719 132.472656 239.375 125.179688 Z M 133.042969 125.304688 C 128.378906 132.464844 123.792969 139.789062 119.363281 147.460938 C 115.582031 154.007812 112.054688 160.542969 108.683594 167.054688 C 103.59375 154.96875 99.378906 143.253906 95.960938 132.035156 C 107.472656 129.269531 119.863281 126.980469 133.042969 125.304688 Z M 292.621094 136.171875 C 298.328125 137.898438 303.839844 139.699219 308.894531 141.675781 C 324.273438 147.679688 336.4375 154.792969 344.324219 162.070312 C 352.207031 169.347656 355.628906 176.285156 355.628906 183.015625 C 355.628906 189.746094 352.207031 196.6875 344.324219 203.960938 C 336.4375 211.238281 324.273438 218.351562 308.894531 224.355469 C 303.277344 226.550781 297.101562 228.542969 290.683594 230.425781 C 286.105469 216.265625 280.265625 201.492188 273.308594 186.414062 C 281.304688 169.097656 287.765625 152.214844 292.621094 136.171875 Z M 80.378906 136.25 C 85.179688 152.132812 91.554688 168.847656 99.4375 185.988281 C 92.4375 201.15625 86.566406 216.015625 81.96875 230.253906 C 75.777344 228.417969 69.8125 226.480469 64.371094 224.355469 C 48.992188 218.351562 36.828125 211.238281 28.941406 203.960938 C 21.058594 196.6875 17.636719 189.746094 17.636719 183.015625 C 17.636719 176.285156 21.058594 169.347656 28.941406 162.070312 C 36.828125 154.792969 48.992188 147.679688 64.371094 141.675781 C 69.347656 139.730469 74.769531 137.953125 80.378906 136.25 Z M 186.632812 146.03125 C 164.496094 146.03125 146.378906 164.148438 146.378906 186.285156 C 146.378906 208.425781 164.496094 226.542969 186.632812 226.542969 C 208.769531 226.542969 226.890625 208.425781 226.890625 186.285156 C 226.890625 164.148438 208.769531 146.03125 186.632812 146.03125 Z M 186.632812 162.132812 C 200.066406 162.132812 210.785156 172.851562 210.785156 186.285156 C 210.785156 199.722656 200.066406 210.441406 186.632812 210.441406 C 173.199219 210.441406 162.480469 199.722656 162.480469 186.285156 C 162.480469 172.851562 173.199219 162.132812 186.632812 162.132812 Z M 264.078125 205.3125 C 268.300781 215.308594 271.972656 225.085938 275.054688 234.515625 C 265.371094 236.761719 255.0625 238.652344 244.21875 240.144531 C 247.339844 235.164062 250.421875 230.089844 253.433594 224.875 C 257.207031 218.339844 260.710938 211.8125 264.078125 205.3125 Z M 108.871094 205.328125 C 112.257812 211.867188 115.785156 218.425781 119.582031 225 C 122.554688 230.148438 125.589844 235.175781 128.671875 240.097656 C 117.859375 238.597656 107.578125 236.699219 97.929688 234.453125 C 100.996094 225.050781 104.667969 215.292969 108.871094 205.328125 Z M 93.289062 250.082031 C 107.859375 253.535156 123.652344 256.1875 140.402344 257.914062 C 151.582031 274.085938 163.226562 288.613281 174.949219 301.316406 C 169.707031 306.425781 164.511719 311.222656 159.429688 315.359375 C 146.339844 326.003906 133.933594 333.234375 123.589844 336.585938 C 113.25 339.9375 105.53125 339.496094 99.785156 336.175781 C 94.035156 332.859375 89.800781 326.398438 87.535156 315.765625 C 85.265625 305.132812 85.328125 290.785156 88.003906 274.125 C 89.21875 266.570312 91.035156 258.476562 93.289062 250.082031 Z M 279.710938 250.144531 C 281.980469 258.585938 283.804688 266.714844 285.023438 274.316406 C 287.703125 290.988281 287.769531 305.355469 285.496094 316.019531 C 283.222656 326.679688 278.953125 333.1875 273.152344 336.539062 C 267.351562 339.890625 259.574219 340.34375 249.203125 336.980469 C 238.832031 333.617188 226.417969 326.359375 213.316406 315.703125 C 208.199219 311.539062 202.964844 306.71875 197.6875 301.566406 C 209.488281 288.816406 221.214844 274.210938 232.472656 257.945312 C 249.261719 256.230469 265.097656 253.59375 279.710938 250.144531 Z M 161.410156 259.566406 C 169.675781 260.015625 178.050781 260.320312 186.632812 260.320312 C 194.929688 260.320312 203.035156 260.035156 211.039062 259.613281 C 202.855469 270.652344 194.515625 280.6875 186.207031 289.726562 C 177.90625 280.667969 169.582031 270.613281 161.410156 259.566406 Z M 161.410156 259.566406 "/><g clip-rule="nonzero" clip-path="url(#8e11c3cfd6)"><g clip-rule="nonzero" clip-path="url(#a6ae257e5a)"><path style=" stroke:none;fill-rule:nonzero;fill:#00390d;fill-opacity:1;" d="M 154.804688 156.839844 L 220.195312 156.839844 L 220.195312 222.226562 L 154.804688 222.226562 Z M 154.804688 156.839844 "/></g></g><g style="fill:#ffffff;fill-opacity:1;"><g transform="translate(166.568108, 211.085937)"><path style="stroke:none" d="M 23.265625 -23.9375 C 28.421875 -22.445312 32.066406 -20.753906 34.203125 -18.859375 C 36.347656 -16.972656 37.421875 -14.46875 37.421875 -11.34375 C 37.421875 -8.988281 36.734375 -6.890625 35.359375 -5.046875 C 33.992188 -3.210938 32.0625 -1.773438 29.5625 -0.734375 C 27.070312 0.304688 24.207031 0.828125 20.96875 0.828125 C 15.875 0.828125 11.800781 -0.144531 8.75 -2.09375 C 5.707031 -4.039062 4.1875 -6.578125 4.1875 -9.703125 C 4.1875 -11.296875 4.625 -12.554688 5.5 -13.484375 C 6.382812 -14.421875 7.566406 -14.890625 9.046875 -14.890625 C 10.304688 -14.890625 11.359375 -14.445312 12.203125 -13.5625 C 13.054688 -12.6875 13.484375 -11.617188 13.484375 -10.359375 C 13.484375 -9.210938 13.128906 -8.28125 12.421875 -7.5625 C 13.734375 -5.695312 16.554688 -4.765625 20.890625 -4.765625 C 23.847656 -4.765625 26.109375 -5.285156 27.671875 -6.328125 C 29.234375 -7.367188 30.015625 -8.769531 30.015625 -10.53125 C 30.015625 -11.675781 29.765625 -12.617188 29.265625 -13.359375 C 28.773438 -14.097656 27.910156 -14.753906 26.671875 -15.328125 C 25.441406 -15.910156 23.566406 -16.554688 21.046875 -17.265625 C 16.941406 -18.421875 13.75 -19.585938 11.46875 -20.765625 C 9.195312 -21.941406 7.566406 -23.253906 6.578125 -24.703125 C 5.585938 -26.160156 5.09375 -27.988281 5.09375 -30.1875 C 5.09375 -32.488281 5.773438 -34.53125 7.140625 -36.3125 C 8.515625 -38.09375 10.421875 -39.472656 12.859375 -40.453125 C 15.304688 -41.441406 18.09375 -41.9375 21.21875 -41.9375 C 26.09375 -41.9375 29.898438 -41.070312 32.640625 -39.34375 C 35.390625 -37.625 36.765625 -35.226562 36.765625 -32.15625 C 36.765625 -30.5625 36.320312 -29.285156 35.4375 -28.328125 C 34.5625 -27.367188 33.410156 -26.890625 31.984375 -26.890625 C 30.671875 -26.890625 29.585938 -27.328125 28.734375 -28.203125 C 27.890625 -29.078125 27.46875 -30.175781 27.46875 -31.5 C 27.46875 -32.644531 27.820312 -33.578125 28.53125 -34.296875 C 27.320312 -35.660156 24.859375 -36.34375 21.140625 -36.34375 C 18.554688 -36.34375 16.46875 -35.796875 14.875 -34.703125 C 13.289062 -33.609375 12.5 -32.179688 12.5 -30.421875 C 12.5 -29.492188 12.800781 -28.703125 13.40625 -28.046875 C 14.007812 -27.390625 15.0625 -26.757812 16.5625 -26.15625 C 18.070312 -25.550781 20.304688 -24.8125 23.265625 -23.9375 Z M 23.265625 -23.9375 "/></g></g></g></svg>