<svg xmlns="http://www.w3.org/2000/svg" xmlns:xlink="http://www.w3.org/1999/xlink" width="500" zoomAndPan="magnify" viewBox="0 0 375 374.999991" height="500" preserveAspectRatio="xMidYMid meet" version="1.2"><defs><clipPath id="e6d50b0b0d"><path d="M 154.804688 156.839844 L 220.195312 156.839844 L 220.195312 222.226562 L 154.804688 222.226562 Z M 154.804688 156.839844 "/></clipPath><clipPath id="e4b6889b57"><path d="M 187.5 156.839844 C 169.445312 156.839844 154.804688 171.476562 154.804688 189.53125 C 154.804688 207.589844 169.445312 222.226562 187.5 222.226562 C 205.554688 222.226562 220.195312 207.589844 220.195312 189.53125 C 220.195312 171.476562 205.554688 156.839844 187.5 156.839844 Z M 187.5 156.839844 "/></clipPath></defs><g id="187f49d9c2"><rect x="0" width="375" y="0" height="374.999991" style="fill:#ffffff;fill-opacity:1;stroke:none;"/><rect x="0" width="375" y="0" height="374.999991" style="fill:#00390d;fill-opacity:1;stroke:none;"/><path style=" stroke:none;fill-rule:nonzero;fill:#ffffff;fill-opacity:1;" d="M 264.457031 17.089844 C 258.144531 16.878906 251.535156 17.976562 244.910156 20.125 C 231.660156 24.421875 217.777344 32.792969 203.527344 44.382812 C 197.941406 48.925781 192.308594 54.117188 186.65625 59.628906 C 181.125 54.257812 175.605469 49.1875 170.144531 44.746094 C 155.90625 33.164062 142.0625 24.808594 128.839844 20.519531 C 115.621094 16.234375 102.46875 16.101562 91.664062 22.339844 C 80.859375 28.578125 74.398438 40.027344 71.5 53.617188 C 68.601562 67.210938 68.90625 83.394531 71.816406 101.515625 C 72.828125 107.8125 74.285156 114.414062 75.929688 121.140625 C 69.757812 123.011719 63.761719 124.980469 58.203125 127.148438 C 41.425781 133.703125 27.542969 141.542969 17.4375 150.871094 C 7.328125 160.199219 0.800781 171.519531 0.800781 183.953125 C 0.800781 196.382812 7.328125 207.6875 17.4375 217.015625 C 27.542969 226.34375 41.425781 234.199219 58.203125 240.753906 C 64.148438 243.074219 70.582031 245.164062 77.226562 247.140625 C 74.835938 256.070312 72.898438 264.734375 71.582031 272.949219 C 68.667969 291.085938 68.359375 307.273438 71.265625 320.894531 C 74.167969 334.519531 80.632812 346.03125 91.488281 352.300781 C 102.347656 358.570312 115.558594 358.414062 128.808594 354.117188 C 142.058594 349.824219 155.929688 341.46875 170.175781 329.878906 C 175.710938 325.375 181.304688 320.242188 186.90625 314.792969 C 192.535156 320.273438 198.160156 325.433594 203.71875 329.957031 C 217.953125 341.539062 231.816406 349.894531 245.039062 354.183594 C 258.257812 358.46875 271.394531 358.601562 282.199219 352.363281 C 293 346.125 299.460938 334.675781 302.359375 321.085938 C 305.257812 307.492188 304.9375 291.308594 302.027344 273.1875 C 300.707031 264.949219 298.769531 256.273438 296.367188 247.316406 C 303.230469 245.292969 309.871094 243.144531 315.992188 240.753906 C 332.769531 234.199219 346.648438 226.34375 356.757812 217.015625 C 366.867188 207.6875 373.394531 196.382812 373.394531 183.953125 C 373.394531 171.519531 366.867188 160.199219 356.757812 150.871094 C 346.648438 141.542969 332.769531 133.703125 315.992188 127.148438 C 310.351562 124.949219 304.265625 122.957031 297.996094 121.0625 C 299.652344 114.292969 301.121094 107.644531 302.140625 101.3125 C 305.050781 83.175781 305.359375 66.972656 302.457031 53.347656 C 299.550781 39.726562 293.070312 28.226562 282.214844 21.960938 C 276.785156 18.824219 270.769531 17.300781 264.457031 17.089844 Z M 263.710938 33.566406 C 267.675781 33.675781 271.054688 34.617188 273.945312 36.285156 C 279.726562 39.625 284 46.121094 286.277344 56.8125 C 288.558594 67.503906 288.480469 81.949219 285.789062 98.703125 C 284.867188 104.4375 283.527344 110.515625 282.007812 116.746094 C 265.453125 112.761719 247.308594 109.800781 227.972656 108.0625 C 218.261719 94.605469 208.277344 82.363281 198.214844 71.488281 C 203.535156 66.292969 208.820312 61.4375 213.980469 57.238281 C 227.140625 46.53125 239.601562 39.246094 250.003906 35.875 C 255.203125 34.191406 259.75 33.457031 263.710938 33.566406 Z M 110.070312 33.613281 C 114.054688 33.503906 118.613281 34.234375 123.828125 35.921875 C 134.257812 39.304688 146.738281 46.585938 159.914062 57.300781 C 164.96875 61.414062 170.140625 66.164062 175.347656 71.234375 C 165.210938 82.195312 155.15625 94.566406 145.382812 108.140625 C 126.113281 109.914062 108.039062 112.898438 91.554688 116.902344 C 90.042969 110.703125 88.722656 104.648438 87.804688 98.9375 C 85.113281 82.171875 85.042969 67.707031 87.332031 56.988281 C 89.617188 46.265625 93.925781 39.734375 99.761719 36.367188 C 102.675781 34.679688 106.085938 33.726562 110.070312 33.613281 Z M 186.90625 83.140625 C 193.5 90.316406 200.101562 98.175781 206.640625 106.625 C 200.214844 106.355469 193.707031 106.199219 187.097656 106.199219 C 180.355469 106.199219 173.726562 106.363281 167.171875 106.640625 C 173.714844 98.183594 180.308594 90.324219 186.90625 83.140625 Z M 187.097656 122.546875 C 198.109375 122.546875 208.839844 123 219.277344 123.765625 C 226.460938 134.082031 233.480469 145.027344 240.167969 156.609375 C 246.042969 166.789062 251.359375 176.953125 256.203125 186.988281 C 251.308594 197.15625 245.902344 207.457031 239.945312 217.777344 C 234.699219 226.859375 229.222656 235.488281 223.65625 243.804688 C 211.867188 244.789062 199.648438 245.339844 187.097656 245.339844 C 174.242188 245.339844 161.75 244.757812 149.699219 243.726562 C 144.222656 235.527344 138.839844 227.015625 133.679688 218.078125 C 127.734375 207.78125 122.355469 197.515625 117.472656 187.367188 C 122.375 177.160156 127.78125 166.824219 133.757812 156.46875 C 140.410156 144.945312 147.410156 134.0625 154.554688 123.796875 C 165.105469 123.015625 175.960938 122.546875 187.097656 122.546875 Z M 240.136719 125.789062 C 253.476562 127.457031 266.003906 129.769531 277.660156 132.542969 C 274.199219 143.886719 269.9375 155.734375 264.773438 167.964844 C 261.417969 161.5 257.945312 155.015625 254.191406 148.515625 C 249.648438 140.640625 244.921875 133.125 240.136719 125.789062 Z M 133.207031 125.917969 C 128.515625 133.117188 123.902344 140.480469 119.449219 148.199219 C 115.648438 154.78125 112.101562 161.355469 108.710938 167.902344 C 103.589844 155.746094 99.351562 143.964844 95.917969 132.683594 C 107.492188 129.90625 119.953125 127.601562 133.207031 125.917969 Z M 293.679688 136.84375 C 299.417969 138.582031 304.960938 140.390625 310.046875 142.378906 C 325.511719 148.417969 337.746094 155.570312 345.671875 162.886719 C 353.601562 170.203125 357.042969 177.183594 357.042969 183.953125 C 357.042969 190.71875 353.601562 197.699219 345.671875 205.015625 C 337.746094 212.332031 325.511719 219.484375 310.046875 225.523438 C 304.394531 227.730469 298.1875 229.734375 291.734375 231.628906 C 287.128906 217.390625 281.253906 202.53125 274.261719 187.367188 C 282.300781 169.957031 288.796875 152.980469 293.679688 136.84375 Z M 80.246094 136.921875 C 85.074219 152.898438 91.484375 169.707031 99.414062 186.941406 C 92.371094 202.195312 86.46875 217.136719 81.84375 231.453125 C 75.617188 229.609375 69.621094 227.660156 64.148438 225.523438 C 48.683594 219.484375 36.449219 212.332031 28.519531 205.015625 C 20.59375 197.699219 17.152344 190.71875 17.152344 183.953125 C 17.152344 177.183594 20.59375 170.203125 28.519531 162.886719 C 36.449219 155.570312 48.683594 148.417969 64.148438 142.378906 C 69.15625 140.421875 74.605469 138.636719 80.246094 136.921875 Z M 187.097656 146.757812 C 164.835938 146.757812 146.613281 164.980469 146.613281 187.242188 C 146.613281 209.503906 164.835938 227.722656 187.097656 227.722656 C 209.359375 227.722656 227.578125 209.503906 227.578125 187.242188 C 227.578125 164.980469 209.359375 146.757812 187.097656 146.757812 Z M 187.097656 162.953125 C 200.609375 162.953125 211.386719 173.730469 211.386719 187.242188 C 211.386719 200.75 200.609375 211.53125 187.097656 211.53125 C 173.585938 211.53125 162.808594 200.75 162.808594 187.242188 C 162.808594 173.730469 173.585938 162.953125 187.097656 162.953125 Z M 264.976562 206.375 C 269.222656 216.425781 272.914062 226.257812 276.015625 235.742188 C 266.277344 237.996094 255.910156 239.898438 245.003906 241.402344 C 248.144531 236.390625 251.246094 231.289062 254.273438 226.046875 C 258.066406 219.472656 261.589844 212.910156 264.976562 206.375 Z M 108.898438 206.390625 C 112.304688 212.964844 115.851562 219.558594 119.667969 226.171875 C 122.660156 231.351562 125.710938 236.40625 128.808594 241.355469 C 117.9375 239.847656 107.601562 237.9375 97.894531 235.675781 C 100.980469 226.222656 104.671875 216.410156 108.898438 206.390625 Z M 93.230469 251.394531 C 107.882812 254.867188 123.765625 257.535156 140.605469 259.269531 C 151.851562 275.535156 163.558594 290.140625 175.347656 302.914062 C 170.078125 308.054688 164.851562 312.878906 159.738281 317.035156 C 146.578125 327.742188 134.101562 335.011719 123.703125 338.382812 C 113.300781 341.757812 105.542969 341.3125 99.761719 337.972656 C 93.980469 334.636719 89.722656 328.140625 87.441406 317.449219 C 85.160156 306.757812 85.226562 292.328125 87.914062 275.574219 C 89.136719 267.972656 90.960938 259.835938 93.230469 251.394531 Z M 280.695312 251.457031 C 282.980469 259.945312 284.8125 268.121094 286.042969 275.765625 C 288.734375 292.53125 288.800781 306.976562 286.515625 317.699219 C 284.230469 328.421875 279.9375 334.96875 274.101562 338.335938 C 268.265625 341.707031 260.449219 342.160156 250.019531 338.78125 C 239.589844 335.398438 227.105469 328.101562 213.933594 317.382812 C 208.78125 313.195312 203.523438 308.347656 198.214844 303.167969 C 210.082031 290.34375 221.875 275.660156 233.191406 259.300781 C 250.078125 257.578125 266.003906 254.925781 280.695312 251.457031 Z M 161.734375 260.929688 C 170.046875 261.382812 178.46875 261.691406 187.097656 261.691406 C 195.441406 261.691406 203.589844 261.402344 211.640625 260.976562 C 203.410156 272.078125 195.023438 282.171875 186.671875 291.261719 C 178.320312 282.152344 169.949219 272.042969 161.734375 260.929688 Z M 161.734375 260.929688 "/><g clip-rule="nonzero" clip-path="url(#e6d50b0b0d)"><g clip-rule="nonzero" clip-path="url(#e4b6889b57)"><path style=" stroke:none;fill-rule:nonzero;fill:#ffffff;fill-opacity:1;" d="M 154.804688 156.839844 L 220.195312 156.839844 L 220.195312 222.226562 L 154.804688 222.226562 Z M 154.804688 156.839844 "/></g></g><g style="fill:#00390d;fill-opacity:1;"><g transform="translate(166.568108, 211.774205)"><path style="stroke:none" d="M 23.265625 -23.9375 C 28.421875 -22.445312 32.066406 -20.753906 34.203125 -18.859375 C 36.347656 -16.972656 37.421875 -14.46875 37.421875 -11.34375 C 37.421875 -8.988281 36.734375 -6.890625 35.359375 -5.046875 C 33.992188 -3.210938 32.0625 -1.773438 29.5625 -0.734375 C 27.070312 0.304688 24.207031 0.828125 20.96875 0.828125 C 15.875 0.828125 11.800781 -0.144531 8.75 -2.09375 C 5.707031 -4.039062 4.1875 -6.578125 4.1875 -9.703125 C 4.1875 -11.296875 4.625 -12.554688 5.5 -13.484375 C 6.382812 -14.421875 7.566406 -14.890625 9.046875 -14.890625 C 10.304688 -14.890625 11.359375 -14.445312 12.203125 -13.5625 C 13.054688 -12.6875 13.484375 -11.617188 13.484375 -10.359375 C 13.484375 -9.210938 13.128906 -8.28125 12.421875 -7.5625 C 13.734375 -5.695312 16.554688 -4.765625 20.890625 -4.765625 C 23.847656 -4.765625 26.109375 -5.285156 27.671875 -6.328125 C 29.234375 -7.367188 30.015625 -8.769531 30.015625 -10.53125 C 30.015625 -11.675781 29.765625 -12.617188 29.265625 -13.359375 C 28.773438 -14.097656 27.910156 -14.753906 26.671875 -15.328125 C 25.441406 -15.910156 23.566406 -16.554688 21.046875 -17.265625 C 16.941406 -18.421875 13.75 -19.585938 11.46875 -20.765625 C 9.195312 -21.941406 7.566406 -23.253906 6.578125 -24.703125 C 5.585938 -26.160156 5.09375 -27.988281 5.09375 -30.1875 C 5.09375 -32.488281 5.773438 -34.53125 7.140625 -36.3125 C 8.515625 -38.09375 10.421875 -39.472656 12.859375 -40.453125 C 15.304688 -41.441406 18.09375 -41.9375 21.21875 -41.9375 C 26.09375 -41.9375 29.898438 -41.070312 32.640625 -39.34375 C 35.390625 -37.625 36.765625 -35.226562 36.765625 -32.15625 C 36.765625 -30.5625 36.320312 -29.285156 35.4375 -28.328125 C 34.5625 -27.367188 33.410156 -26.890625 31.984375 -26.890625 C 30.671875 -26.890625 29.585938 -27.328125 28.734375 -28.203125 C 27.890625 -29.078125 27.46875 -30.175781 27.46875 -31.5 C 27.46875 -32.644531 27.820312 -33.578125 28.53125 -34.296875 C 27.320312 -35.660156 24.859375 -36.34375 21.140625 -36.34375 C 18.554688 -36.34375 16.46875 -35.796875 14.875 -34.703125 C 13.289062 -33.609375 12.5 -32.179688 12.5 -30.421875 C 12.5 -29.492188 12.800781 -28.703125 13.40625 -28.046875 C 14.007812 -27.390625 15.0625 -26.757812 16.5625 -26.15625 C 18.070312 -25.550781 20.304688 -24.8125 23.265625 -23.9375 Z M 23.265625 -23.9375 "/></g></g></g></svg>