<svg xmlns="http://www.w3.org/2000/svg" xmlns:xlink="http://www.w3.org/1999/xlink" width="405" zoomAndPan="magnify" viewBox="0 0 304.08 84.96" height="103" preserveAspectRatio="xMidYMid meet" version="1.2"><defs><clipPath id="3afbae38fc"><path d="M 0 0.109375 L 302.832031 0.109375 L 302.832031 77.125 L 0 77.125 Z M 0 0.109375 "/></clipPath><clipPath id="f2d23170a5"><path d="M 5 2 L 85.554688 2 L 85.554688 75.367188 L 5 75.367188 Z M 5 2 "/></clipPath><clipPath id="1bbf110151"><path d="M 38.199219 32.191406 L 52.269531 32.191406 L 52.269531 46.257812 L 38.199219 46.257812 Z M 38.199219 32.191406 "/></clipPath><clipPath id="0e7aa2290e"><path d="M 45.234375 32.191406 C 41.351562 32.191406 38.199219 35.339844 38.199219 39.222656 C 38.199219 43.109375 41.351562 46.257812 45.234375 46.257812 C 49.121094 46.257812 52.269531 43.109375 52.269531 39.222656 C 52.269531 35.339844 49.121094 32.191406 45.234375 32.191406 Z M 45.234375 32.191406 "/></clipPath></defs><g id="fc7a63284e"><g clip-rule="nonzero" clip-path="url(#3afbae38fc)"><path style=" stroke:none;fill-rule:nonzero;fill:#ffffff;fill-opacity:1;" d="M 0 0.109375 L 302.832031 0.109375 L 302.832031 77.125 L 0 77.125 Z M 0 0.109375 "/><path style=" stroke:none;fill-rule:nonzero;fill:#ffffff;fill-opacity:1;" d="M 0 0.109375 L 302.832031 0.109375 L 302.832031 77.125 L 0 77.125 Z M 0 0.109375 "/></g><g style="fill:#00390d;fill-opacity:1;"><g transform="translate(91.586154, 55.70812)"><path style="stroke:none" d="M 18.65625 -19.1875 C 22.789062 -18 25.710938 -16.644531 27.421875 -15.125 C 29.140625 -13.613281 30 -11.601562 30 -9.09375 C 30 -7.207031 29.445312 -5.523438 28.34375 -4.046875 C 27.25 -2.578125 25.703125 -1.425781 23.703125 -0.59375 C 21.703125 0.238281 19.40625 0.65625 16.8125 0.65625 C 12.726562 0.65625 9.460938 -0.117188 7.015625 -1.671875 C 4.578125 -3.234375 3.359375 -5.269531 3.359375 -7.78125 C 3.359375 -9.050781 3.707031 -10.0625 4.40625 -10.8125 C 5.113281 -11.5625 6.0625 -11.9375 7.25 -11.9375 C 8.257812 -11.9375 9.101562 -11.582031 9.78125 -10.875 C 10.46875 -10.175781 10.8125 -9.320312 10.8125 -8.3125 C 10.8125 -7.382812 10.523438 -6.632812 9.953125 -6.0625 C 11.015625 -4.570312 13.28125 -3.828125 16.75 -3.828125 C 19.125 -3.828125 20.9375 -4.242188 22.1875 -5.078125 C 23.4375 -5.910156 24.0625 -7.03125 24.0625 -8.4375 C 24.0625 -9.363281 23.863281 -10.125 23.46875 -10.71875 C 23.070312 -11.3125 22.378906 -11.835938 21.390625 -12.296875 C 20.398438 -12.753906 18.894531 -13.269531 16.875 -13.84375 C 13.582031 -14.769531 11.023438 -15.703125 9.203125 -16.640625 C 7.378906 -17.585938 6.070312 -18.644531 5.28125 -19.8125 C 4.488281 -20.976562 4.09375 -22.441406 4.09375 -24.203125 C 4.09375 -26.046875 4.640625 -27.679688 5.734375 -29.109375 C 6.835938 -30.535156 8.363281 -31.644531 10.3125 -32.4375 C 12.269531 -33.226562 14.503906 -33.625 17.015625 -33.625 C 20.921875 -33.625 23.972656 -32.929688 26.171875 -31.546875 C 28.367188 -30.160156 29.46875 -28.238281 29.46875 -25.78125 C 29.46875 -24.507812 29.113281 -23.488281 28.40625 -22.71875 C 27.707031 -21.945312 26.789062 -21.5625 25.65625 -21.5625 C 24.59375 -21.5625 23.71875 -21.910156 23.03125 -22.609375 C 22.351562 -23.316406 22.015625 -24.195312 22.015625 -25.25 C 22.015625 -26.175781 22.300781 -26.925781 22.875 -27.5 C 21.914062 -28.59375 19.941406 -29.140625 16.953125 -29.140625 C 14.878906 -29.140625 13.203125 -28.695312 11.921875 -27.8125 C 10.648438 -26.9375 10.015625 -25.796875 10.015625 -24.390625 C 10.015625 -23.648438 10.253906 -23.015625 10.734375 -22.484375 C 11.222656 -21.953125 12.070312 -21.445312 13.28125 -20.96875 C 14.488281 -20.488281 16.28125 -19.894531 18.65625 -19.1875 Z M 18.65625 -19.1875 "/></g></g><g style="fill:#00390d;fill-opacity:1;"><g transform="translate(125.142682, 55.70812)"><path style="stroke:none" d="M 31.984375 -5.203125 C 33.390625 -5.203125 34.09375 -4.609375 34.09375 -3.421875 L 34.09375 -1.78125 C 34.09375 -0.59375 33.390625 0 31.984375 0 L 26.703125 0 C 26.046875 0 25.484375 -0.226562 25.015625 -0.6875 C 24.554688 -1.15625 24.328125 -1.738281 24.328125 -2.4375 L 24.328125 -6.59375 C 23.492188 -4.53125 22.054688 -2.804688 20.015625 -1.421875 C 17.972656 -0.0351562 15.804688 0.65625 13.515625 0.65625 C 10.441406 0.65625 7.957031 -0.234375 6.0625 -2.015625 C 4.175781 -3.796875 3.234375 -6.15625 3.234375 -9.09375 C 3.234375 -12.175781 4.273438 -14.550781 6.359375 -16.21875 C 8.453125 -17.882812 11.429688 -18.71875 15.296875 -18.71875 C 18.242188 -18.71875 21.253906 -18.367188 24.328125 -17.671875 L 24.328125 -20.640625 C 24.328125 -23.367188 23.6875 -25.390625 22.40625 -26.703125 C 21.132812 -28.023438 19.160156 -28.6875 16.484375 -28.6875 C 14.421875 -28.6875 12.882812 -28.289062 11.875 -27.5 C 12.175781 -26.96875 12.328125 -26.394531 12.328125 -25.78125 C 12.328125 -24.769531 11.972656 -23.910156 11.265625 -23.203125 C 10.566406 -22.503906 9.710938 -22.15625 8.703125 -22.15625 C 7.515625 -22.15625 6.566406 -22.523438 5.859375 -23.265625 C 5.160156 -24.015625 4.8125 -25.03125 4.8125 -26.3125 C 4.8125 -28.46875 5.929688 -30.222656 8.171875 -31.578125 C 10.421875 -32.941406 13.28125 -33.625 16.75 -33.625 C 21.101562 -33.625 24.429688 -32.457031 26.734375 -30.125 C 29.046875 -27.800781 30.203125 -24.507812 30.203125 -20.25 L 30.203125 -5.203125 Z M 14.90625 -4.15625 C 16.570312 -4.15625 18.117188 -4.601562 19.546875 -5.5 C 20.972656 -6.40625 22.113281 -7.613281 22.96875 -9.125 C 23.832031 -10.644531 24.285156 -12.304688 24.328125 -14.109375 C 22.347656 -14.421875 19.625 -14.578125 16.15625 -14.578125 C 11.40625 -14.578125 9.03125 -12.816406 9.03125 -9.296875 C 9.03125 -7.671875 9.554688 -6.40625 10.609375 -5.5 C 11.671875 -4.601562 13.101562 -4.15625 14.90625 -4.15625 Z M 14.90625 -4.15625 "/></g></g><g style="fill:#00390d;fill-opacity:1;"><g transform="translate(161.600001, 55.70812)"><path style="stroke:none" d="M 4.609375 0 C 3.160156 0 2.4375 -0.59375 2.4375 -1.78125 L 2.4375 -3.421875 C 2.4375 -4.609375 3.160156 -5.203125 4.609375 -5.203125 L 6.328125 -5.203125 L 6.328125 -43.578125 L 4.609375 -43.578125 C 3.160156 -43.578125 2.4375 -44.171875 2.4375 -45.359375 L 2.4375 -47.015625 C 2.4375 -48.203125 3.160156 -48.796875 4.609375 -48.796875 L 9.828125 -48.796875 C 10.484375 -48.796875 11.039062 -48.5625 11.5 -48.09375 C 11.96875 -47.632812 12.203125 -47.054688 12.203125 -46.359375 L 12.203125 -5.203125 L 13.90625 -5.203125 C 15.363281 -5.203125 16.09375 -4.609375 16.09375 -3.421875 L 16.09375 -1.78125 C 16.09375 -0.59375 15.363281 0 13.90625 0 Z M 4.609375 0 "/></g></g><g style="fill:#00390d;fill-opacity:1;"><g transform="translate(180.12531, 55.70812)"><path style="stroke:none" d="M 26.578125 -10.8125 C 27.273438 -10.8125 27.882812 -10.601562 28.40625 -10.1875 C 28.9375 -9.769531 29.203125 -9.253906 29.203125 -8.640625 C 29.203125 -7.929688 28.984375 -7.140625 28.546875 -6.265625 C 27.535156 -4.242188 26.328125 -2.582031 24.921875 -1.28125 C 23.515625 0.0078125 21.582031 0.65625 19.125 0.65625 C 15.519531 0.65625 12.78125 -0.414062 10.90625 -2.5625 C 9.039062 -4.71875 8.109375 -7.863281 8.109375 -12 L 8.109375 -27.828125 L 4.015625 -27.828125 C 3.222656 -27.828125 2.617188 -28.023438 2.203125 -28.421875 C 1.785156 -28.816406 1.578125 -29.363281 1.578125 -30.0625 L 1.578125 -30.796875 C 1.578125 -31.492188 1.785156 -32.03125 2.203125 -32.40625 C 2.617188 -32.78125 3.222656 -32.96875 4.015625 -32.96875 L 8.109375 -32.96875 L 8.109375 -39.03125 C 8.109375 -39.820312 8.316406 -40.425781 8.734375 -40.84375 C 9.148438 -41.257812 9.734375 -41.46875 10.484375 -41.46875 L 11.734375 -41.46875 C 12.484375 -41.46875 13.054688 -41.257812 13.453125 -40.84375 C 13.847656 -40.425781 14.046875 -39.820312 14.046875 -39.03125 L 14.046875 -32.96875 L 22.609375 -32.96875 C 23.398438 -32.96875 24.003906 -32.78125 24.421875 -32.40625 C 24.847656 -32.03125 25.0625 -31.492188 25.0625 -30.796875 L 25.0625 -30.0625 C 25.0625 -29.363281 24.847656 -28.816406 24.421875 -28.421875 C 24.003906 -28.023438 23.398438 -27.828125 22.609375 -27.828125 L 14.046875 -27.828125 L 14.046875 -12.125 C 14.046875 -7.03125 15.800781 -4.484375 19.3125 -4.484375 C 20.675781 -4.484375 21.695312 -4.84375 22.375 -5.5625 C 23.0625 -6.289062 23.78125 -7.515625 24.53125 -9.234375 C 24.832031 -9.804688 25.125 -10.210938 25.40625 -10.453125 C 25.695312 -10.691406 26.085938 -10.8125 26.578125 -10.8125 Z M 26.578125 -10.8125 "/></g></g><g style="fill:#00390d;fill-opacity:1;"><g transform="translate(211.374411, 55.70812)"><path style="stroke:none" d="M 8.90625 -39.359375 C 7.675781 -39.359375 6.640625 -39.773438 5.796875 -40.609375 C 4.960938 -41.453125 4.546875 -42.488281 4.546875 -43.71875 C 4.546875 -44.945312 4.960938 -45.96875 5.796875 -46.78125 C 6.640625 -47.59375 7.675781 -48 8.90625 -48 C 10.132812 -48 11.15625 -47.59375 11.96875 -46.78125 C 12.78125 -45.96875 13.1875 -44.945312 13.1875 -43.71875 C 13.1875 -42.488281 12.78125 -41.453125 11.96875 -40.609375 C 11.15625 -39.773438 10.132812 -39.359375 8.90625 -39.359375 Z M 5.28125 0 C 3.875 0 3.171875 -0.59375 3.171875 -1.78125 L 3.171875 -3.421875 C 3.171875 -4.609375 3.875 -5.203125 5.28125 -5.203125 L 6.984375 -5.203125 L 6.984375 -27.765625 L 5.28125 -27.765625 C 3.875 -27.765625 3.171875 -28.359375 3.171875 -29.546875 L 3.171875 -31.1875 C 3.171875 -32.375 3.875 -32.96875 5.28125 -32.96875 L 10.484375 -32.96875 C 11.191406 -32.96875 11.773438 -32.734375 12.234375 -32.265625 C 12.691406 -31.804688 12.921875 -31.226562 12.921875 -30.53125 L 12.921875 -5.203125 L 14.640625 -5.203125 C 16.085938 -5.203125 16.8125 -4.609375 16.8125 -3.421875 L 16.8125 -1.78125 C 16.8125 -0.59375 16.085938 0 14.640625 0 Z M 5.28125 0 "/></g></g><g style="fill:#00390d;fill-opacity:1;"><g transform="translate(230.558991, 55.70812)"><path style="stroke:none" d="M 24.46875 -38.90625 C 23.457031 -38.90625 22.609375 -39.253906 21.921875 -39.953125 C 21.242188 -40.660156 20.90625 -41.519531 20.90625 -42.53125 C 20.90625 -43.144531 21.035156 -43.671875 21.296875 -44.109375 C 20.816406 -44.242188 20.269531 -44.3125 19.65625 -44.3125 C 17.894531 -44.3125 16.582031 -43.757812 15.71875 -42.65625 C 14.863281 -41.5625 14.4375 -39.867188 14.4375 -37.578125 L 14.4375 -32.96875 L 22.546875 -32.96875 C 24.171875 -32.96875 24.984375 -32.242188 24.984375 -30.796875 L 24.984375 -30.0625 C 24.984375 -29.363281 24.785156 -28.816406 24.390625 -28.421875 C 23.992188 -28.023438 23.378906 -27.828125 22.546875 -27.828125 L 14.4375 -27.828125 L 14.4375 -5.203125 L 17.609375 -5.203125 C 19.015625 -5.203125 19.71875 -4.609375 19.71875 -3.421875 L 19.71875 -1.78125 C 19.71875 -0.59375 19.015625 0 17.609375 0 L 6.859375 0 C 5.410156 0 4.6875 -0.59375 4.6875 -1.78125 L 4.6875 -3.421875 C 4.6875 -4.609375 5.410156 -5.203125 6.859375 -5.203125 L 8.578125 -5.203125 L 8.578125 -27.828125 L 4.421875 -27.828125 C 3.628906 -27.828125 3.023438 -28.023438 2.609375 -28.421875 C 2.191406 -28.816406 1.984375 -29.363281 1.984375 -30.0625 L 1.984375 -30.796875 C 1.984375 -31.453125 2.191406 -31.976562 2.609375 -32.375 C 3.023438 -32.769531 3.628906 -32.96875 4.421875 -32.96875 L 8.578125 -32.96875 L 8.578125 -38.109375 C 8.578125 -41.585938 9.578125 -44.347656 11.578125 -46.390625 C 13.578125 -48.429688 16.242188 -49.453125 19.578125 -49.453125 C 22.128906 -49.453125 24.226562 -48.847656 25.875 -47.640625 C 27.53125 -46.429688 28.359375 -44.90625 28.359375 -43.0625 C 28.359375 -41.78125 28.003906 -40.765625 27.296875 -40.015625 C 26.597656 -39.273438 25.65625 -38.90625 24.46875 -38.90625 Z M 24.46875 -38.90625 "/></g></g><g style="fill:#00390d;fill-opacity:1;"><g transform="translate(258.44599, 55.70812)"><path style="stroke:none" d="M 34.546875 -32.96875 C 36.003906 -32.96875 36.734375 -32.375 36.734375 -31.1875 L 36.734375 -29.546875 C 36.734375 -28.359375 36.003906 -27.765625 34.546875 -27.765625 L 32.84375 -27.765625 L 19.3125 5.46875 C 17.6875 9.34375 16.09375 12.035156 14.53125 13.546875 C 12.976562 15.066406 10.992188 15.828125 8.578125 15.828125 C 6.679688 15.828125 5.128906 15.304688 3.921875 14.265625 C 2.710938 13.234375 2.109375 11.929688 2.109375 10.359375 C 2.109375 9.210938 2.46875 8.285156 3.1875 7.578125 C 3.914062 6.878906 4.851562 6.53125 6 6.53125 C 7.007812 6.53125 7.863281 6.878906 8.5625 7.578125 C 9.269531 8.285156 9.625 9.144531 9.625 10.15625 C 9.625 10.375 9.582031 10.660156 9.5 11.015625 C 10.332031 10.835938 11.078125 10.296875 11.734375 9.390625 C 12.390625 8.492188 13.113281 7.054688 13.90625 5.078125 L 16.359375 -1.0625 L 5.40625 -27.765625 L 3.6875 -27.765625 C 2.238281 -27.765625 1.515625 -28.359375 1.515625 -29.546875 L 1.515625 -31.1875 C 1.515625 -32.375 2.238281 -32.96875 3.6875 -32.96875 L 12.71875 -32.96875 C 14.132812 -32.96875 14.84375 -32.375 14.84375 -31.1875 L 14.84375 -29.546875 C 14.84375 -28.359375 14.132812 -27.765625 12.71875 -27.765625 L 11.609375 -27.765625 L 19.453125 -8.171875 L 27.171875 -27.765625 L 25.84375 -27.765625 C 24.394531 -27.765625 23.671875 -28.359375 23.671875 -29.546875 L 23.671875 -31.1875 C 23.671875 -32.375 24.394531 -32.96875 25.84375 -32.96875 Z M 34.546875 -32.96875 "/></g></g><g clip-rule="nonzero" clip-path="url(#f2d23170a5)"><path style=" stroke:none;fill-rule:nonzero;fill:#00390d;fill-opacity:1;" d="M 61.6875 2.121094 C 60.335938 2.074219 58.917969 2.308594 57.5 2.769531 C 54.660156 3.691406 51.683594 5.484375 48.632812 7.96875 C 47.433594 8.941406 46.226562 10.054688 45.015625 11.234375 C 43.832031 10.085938 42.648438 9 41.476562 8.046875 C 38.425781 5.566406 35.457031 3.773438 32.625 2.855469 C 29.792969 1.9375 26.972656 1.90625 24.65625 3.246094 C 22.34375 4.582031 20.957031 7.035156 20.335938 9.949219 C 19.714844 12.859375 19.78125 16.328125 20.40625 20.214844 C 20.621094 21.5625 20.933594 22.976562 21.285156 24.417969 C 19.964844 24.820312 18.679688 25.242188 17.488281 25.707031 C 13.890625 27.109375 10.917969 28.789062 8.75 30.789062 C 6.585938 32.789062 5.183594 35.214844 5.183594 37.878906 C 5.183594 40.542969 6.585938 42.964844 8.75 44.964844 C 10.917969 46.964844 13.890625 48.648438 17.488281 50.050781 C 18.761719 50.550781 20.140625 50.996094 21.5625 51.421875 C 21.050781 53.335938 20.636719 55.191406 20.355469 56.953125 C 19.730469 60.839844 19.664062 64.308594 20.285156 67.226562 C 20.910156 70.148438 22.292969 72.613281 24.621094 73.957031 C 26.949219 75.300781 29.777344 75.269531 32.617188 74.347656 C 35.457031 73.425781 38.429688 71.636719 41.484375 69.152344 C 42.667969 68.1875 43.867188 67.085938 45.070312 65.917969 C 46.277344 67.09375 47.480469 68.199219 48.671875 69.167969 C 51.722656 71.652344 54.695312 73.441406 57.527344 74.359375 C 60.359375 75.28125 63.175781 75.308594 65.492188 73.972656 C 67.804688 72.632812 69.191406 70.179688 69.8125 67.269531 C 70.433594 64.355469 70.363281 60.886719 69.742188 57.003906 C 69.457031 55.238281 69.042969 53.378906 68.527344 51.457031 C 70 51.023438 71.421875 50.566406 72.734375 50.050781 C 76.328125 48.648438 79.304688 46.964844 81.46875 44.964844 C 83.636719 42.964844 85.035156 40.542969 85.035156 37.878906 C 85.035156 35.214844 83.636719 32.789062 81.46875 30.789062 C 79.304688 28.789062 76.328125 27.109375 72.734375 25.707031 C 71.523438 25.234375 70.21875 24.808594 68.875 24.402344 C 69.230469 22.953125 69.546875 21.527344 69.765625 20.167969 C 70.390625 16.28125 70.453125 12.808594 69.832031 9.890625 C 69.210938 6.972656 67.820312 4.507812 65.496094 3.164062 C 64.332031 2.492188 63.042969 2.164062 61.6875 2.121094 Z M 61.53125 5.652344 C 62.378906 5.675781 63.101562 5.875 63.722656 6.234375 C 64.960938 6.949219 65.875 8.339844 66.367188 10.632812 C 66.855469 12.925781 66.835938 16.019531 66.261719 19.609375 C 66.0625 20.839844 65.777344 22.140625 65.449219 23.476562 C 61.902344 22.621094 58.015625 21.988281 53.871094 21.617188 C 51.789062 18.730469 49.648438 16.109375 47.492188 13.777344 C 48.632812 12.664062 49.765625 11.625 50.871094 10.722656 C 53.691406 8.429688 56.363281 6.867188 58.589844 6.144531 C 59.707031 5.785156 60.679688 5.628906 61.53125 5.652344 Z M 28.601562 5.660156 C 29.457031 5.636719 30.433594 5.792969 31.550781 6.15625 C 33.785156 6.878906 36.460938 8.441406 39.285156 10.738281 C 40.367188 11.617188 41.476562 12.636719 42.59375 13.722656 C 40.421875 16.074219 38.265625 18.722656 36.171875 21.632812 C 32.042969 22.011719 28.167969 22.652344 24.632812 23.511719 C 24.3125 22.183594 24.027344 20.882812 23.832031 19.660156 C 23.253906 16.066406 23.238281 12.96875 23.730469 10.667969 C 24.21875 8.371094 25.144531 6.972656 26.394531 6.25 C 27.019531 5.890625 27.75 5.683594 28.601562 5.660156 Z M 45.070312 16.273438 C 46.484375 17.8125 47.898438 19.496094 49.300781 21.308594 C 47.921875 21.25 46.527344 21.214844 45.109375 21.214844 C 43.664062 21.214844 42.246094 21.25 40.839844 21.3125 C 42.242188 19.5 43.65625 17.8125 45.070312 16.273438 Z M 45.109375 24.71875 C 47.46875 24.71875 49.769531 24.816406 52.007812 24.980469 C 53.546875 27.191406 55.050781 29.539062 56.484375 32.019531 C 57.742188 34.203125 58.882812 36.378906 59.917969 38.53125 C 58.871094 40.710938 57.710938 42.917969 56.4375 45.128906 C 55.3125 47.074219 54.136719 48.925781 52.945312 50.707031 C 50.417969 50.917969 47.800781 51.035156 45.109375 51.035156 C 42.355469 51.035156 39.679688 50.910156 37.09375 50.691406 C 35.921875 48.933594 34.769531 47.109375 33.664062 45.191406 C 32.386719 42.984375 31.234375 40.785156 30.1875 38.613281 C 31.238281 36.425781 32.398438 34.207031 33.679688 31.988281 C 35.105469 29.519531 36.605469 27.1875 38.136719 24.988281 C 40.398438 24.820312 42.722656 24.71875 45.109375 24.71875 Z M 56.476562 25.414062 C 59.335938 25.773438 62.019531 26.269531 64.519531 26.863281 C 63.777344 29.292969 62.863281 31.832031 61.757812 34.453125 C 61.039062 33.066406 60.292969 31.679688 59.488281 30.285156 C 58.515625 28.597656 57.503906 26.988281 56.476562 25.414062 Z M 33.5625 25.441406 C 32.554688 26.984375 31.566406 28.5625 30.613281 30.21875 C 29.796875 31.628906 29.039062 33.035156 28.3125 34.441406 C 27.214844 31.835938 26.304688 29.308594 25.570312 26.894531 C 28.050781 26.296875 30.71875 25.804688 33.5625 25.441406 Z M 67.953125 27.785156 C 69.179688 28.15625 70.371094 28.542969 71.457031 28.96875 C 74.773438 30.265625 77.394531 31.796875 79.09375 33.367188 C 80.792969 34.933594 81.53125 36.429688 81.53125 37.878906 C 81.53125 39.332031 80.792969 40.824219 79.09375 42.394531 C 77.394531 43.960938 74.773438 45.496094 71.457031 46.789062 C 70.25 47.261719 68.917969 47.691406 67.535156 48.097656 C 66.546875 45.046875 65.289062 41.863281 63.789062 38.613281 C 65.511719 34.878906 66.90625 31.242188 67.953125 27.785156 Z M 22.210938 27.800781 C 23.246094 31.222656 24.621094 34.828125 26.320312 38.519531 C 24.808594 41.789062 23.542969 44.992188 22.554688 48.058594 C 21.21875 47.664062 19.933594 47.246094 18.761719 46.789062 C 15.445312 45.496094 12.824219 43.960938 11.125 42.394531 C 9.425781 40.824219 8.691406 39.332031 8.691406 37.878906 C 8.691406 36.429688 9.425781 34.933594 11.125 33.367188 C 12.824219 31.796875 15.445312 30.265625 18.761719 28.96875 C 19.835938 28.550781 21.003906 28.167969 22.210938 27.800781 Z M 45.109375 29.910156 C 40.339844 29.910156 36.433594 33.8125 36.433594 38.585938 C 36.433594 43.355469 40.339844 47.261719 45.109375 47.261719 C 49.882812 47.261719 53.785156 43.355469 53.785156 38.585938 C 53.785156 33.8125 49.882812 29.910156 45.109375 29.910156 Z M 45.109375 33.378906 C 48.003906 33.378906 50.316406 35.6875 50.316406 38.585938 C 50.316406 41.480469 48.003906 43.789062 45.109375 43.789062 C 42.214844 43.789062 39.90625 41.480469 39.90625 38.585938 C 39.90625 35.6875 42.214844 33.378906 45.109375 33.378906 Z M 61.800781 42.683594 C 62.710938 44.839844 63.5 46.945312 64.167969 48.976562 C 62.078125 49.460938 59.859375 49.871094 57.519531 50.191406 C 58.191406 49.117188 58.859375 48.023438 59.507812 46.902344 C 60.320312 45.492188 61.074219 44.085938 61.800781 42.683594 Z M 28.351562 42.6875 C 29.082031 44.097656 29.839844 45.511719 30.660156 46.929688 C 31.300781 48.039062 31.953125 49.121094 32.617188 50.179688 C 30.289062 49.859375 28.074219 49.449219 25.992188 48.964844 C 26.65625 46.9375 27.445312 44.835938 28.351562 42.6875 Z M 24.992188 52.332031 C 28.132812 53.078125 31.539062 53.648438 35.148438 54.019531 C 37.554688 57.507812 40.066406 60.636719 42.59375 63.375 C 41.460938 64.476562 40.34375 65.507812 39.246094 66.402344 C 36.425781 68.695312 33.753906 70.253906 31.523438 70.976562 C 29.296875 71.699219 27.632812 71.601562 26.394531 70.886719 C 25.152344 70.171875 24.242188 68.78125 23.753906 66.488281 C 23.265625 64.199219 23.277344 61.105469 23.855469 57.515625 C 24.117188 55.886719 24.507812 54.140625 24.992188 52.332031 Z M 65.167969 52.347656 C 65.660156 54.164062 66.050781 55.917969 66.316406 57.554688 C 66.890625 61.148438 66.90625 64.246094 66.417969 66.542969 C 65.925781 68.839844 65.007812 70.242188 63.757812 70.964844 C 62.503906 71.6875 60.828125 71.785156 58.59375 71.058594 C 56.359375 70.335938 53.683594 68.773438 50.859375 66.476562 C 49.757812 65.578125 48.628906 64.539062 47.492188 63.429688 C 50.035156 60.679688 52.5625 57.53125 54.988281 54.027344 C 58.605469 53.65625 62.019531 53.089844 65.167969 52.347656 Z M 39.675781 54.375 C 41.457031 54.472656 43.261719 54.539062 45.109375 54.539062 C 46.898438 54.539062 48.644531 54.476562 50.371094 54.386719 C 48.605469 56.765625 46.808594 58.929688 45.019531 60.875 C 43.230469 58.925781 41.433594 56.757812 39.675781 54.375 Z M 39.675781 54.375 "/></g><g clip-rule="nonzero" clip-path="url(#1bbf110151)"><g clip-rule="nonzero" clip-path="url(#0e7aa2290e)"><path style=" stroke:none;fill-rule:nonzero;fill:#00390d;fill-opacity:1;" d="M 38.199219 32.191406 L 52.269531 32.191406 L 52.269531 46.257812 L 38.199219 46.257812 Z M 38.199219 32.191406 "/></g></g><g style="fill:#ffffff;fill-opacity:1;"><g transform="translate(40.731786, 43.861727)"><path style="stroke:none" d="M 5 -5.140625 C 6.113281 -4.828125 6.898438 -4.46875 7.359375 -4.0625 C 7.816406 -3.65625 8.046875 -3.113281 8.046875 -2.4375 C 8.046875 -1.9375 7.894531 -1.488281 7.59375 -1.09375 C 7.300781 -0.695312 6.882812 -0.382812 6.34375 -0.15625 C 5.8125 0.0625 5.203125 0.171875 4.515625 0.171875 C 3.410156 0.171875 2.53125 -0.0351562 1.875 -0.453125 C 1.226562 -0.867188 0.90625 -1.414062 0.90625 -2.09375 C 0.90625 -2.425781 1 -2.691406 1.1875 -2.890625 C 1.375 -3.097656 1.628906 -3.203125 1.953125 -3.203125 C 2.222656 -3.203125 2.445312 -3.109375 2.625 -2.921875 C 2.8125 -2.734375 2.90625 -2.503906 2.90625 -2.234375 C 2.90625 -1.984375 2.828125 -1.78125 2.671875 -1.625 C 2.953125 -1.226562 3.5625 -1.03125 4.5 -1.03125 C 5.132812 -1.03125 5.617188 -1.140625 5.953125 -1.359375 C 6.285156 -1.585938 6.453125 -1.890625 6.453125 -2.265625 C 6.453125 -2.515625 6.398438 -2.71875 6.296875 -2.875 C 6.191406 -3.03125 6.003906 -3.171875 5.734375 -3.296875 C 5.472656 -3.421875 5.070312 -3.5625 4.53125 -3.71875 C 3.644531 -3.957031 2.957031 -4.203125 2.46875 -4.453125 C 1.976562 -4.710938 1.625 -5 1.40625 -5.3125 C 1.195312 -5.625 1.09375 -6.015625 1.09375 -6.484375 C 1.09375 -6.984375 1.238281 -7.425781 1.53125 -7.8125 C 1.832031 -8.195312 2.242188 -8.492188 2.765625 -8.703125 C 3.296875 -8.910156 3.894531 -9.015625 4.5625 -9.015625 C 5.613281 -9.015625 6.429688 -8.828125 7.015625 -8.453125 C 7.609375 -8.085938 7.90625 -7.578125 7.90625 -6.921875 C 7.90625 -6.578125 7.8125 -6.300781 7.625 -6.09375 C 7.4375 -5.882812 7.1875 -5.78125 6.875 -5.78125 C 6.59375 -5.78125 6.359375 -5.875 6.171875 -6.0625 C 5.992188 -6.25 5.90625 -6.488281 5.90625 -6.78125 C 5.90625 -7.019531 5.984375 -7.21875 6.140625 -7.375 C 5.878906 -7.664062 5.347656 -7.8125 4.546875 -7.8125 C 3.992188 -7.8125 3.546875 -7.691406 3.203125 -7.453125 C 2.859375 -7.222656 2.6875 -6.921875 2.6875 -6.546875 C 2.6875 -6.347656 2.75 -6.175781 2.875 -6.03125 C 3.007812 -5.882812 3.238281 -5.75 3.5625 -5.625 C 3.882812 -5.5 4.363281 -5.335938 5 -5.140625 Z M 5 -5.140625 "/></g></g></g></svg>